<?xml version="1.0" standalone="no"?>
<!DOCTYPE svg PUBLIC "-//W3C//DTD SVG 20010904//EN"
 "http://www.w3.org/TR/2001/REC-SVG-20010904/DTD/svg10.dtd">
<svg version="1.0" xmlns="http://www.w3.org/2000/svg"
 width="1800.000000pt" height="1800.000000pt" viewBox="0 0 1800.000000 1800.000000"
 preserveAspectRatio="xMidYMid meet">
<metadata>
Created by potrace 1.11, written by Peter Selinger 2001-2013
</metadata>
<g transform="translate(0.000000,1800.000000) scale(0.100000,-0.100000)"
fill="#000000" stroke="none">
<path d="M162 17838 c-18 -18 -18 -12438 0 -12456 7 -7 20 -12 29 -12 22 0
12439 12417 12439 12439 0 9 -5 22 -12 29 -18 18 -12438 18 -12456 0z"/>
<path d="M17588 17646 c-434 -435 -2517 -2532 -2893 -2911 -218 -220 -905
-911 -1525 -1535 -620 -624 -1302 -1310 -1515 -1525 -213 -214 -892 -898
-1509 -1518 -616 -621 -1124 -1136 -1128 -1146 -3 -10 -3 -23 0 -28 4 -6 520
-527 1147 -1158 627 -631 1327 -1335 1555 -1565 228 -230 910 -917 1515 -1525
605 -609 1266 -1274 1469 -1479 305 -307 2003 -2016 2864 -2882 125 -126 230
-224 240 -224 43 0 42 -10 42 797 l0 773 -334 337 c-183 186 -432 438 -552
559 -121 122 -487 493 -814 824 -327 331 -685 693 -795 805 -323 327 -1402
1419 -1630 1650 -594 601 -1434 1451 -1624 1644 -119 121 -483 490 -810 820
-327 331 -601 611 -608 621 -8 12 -11 26 -6 34 4 8 526 535 1159 1173 634 637
1318 1325 1520 1530 203 204 880 886 1505 1515 626 628 1313 1321 1529 1538
215 217 632 636 926 931 l534 537 0 794 c0 829 1 818 -42 818 -10 0 -108 -91
-220 -204z"/>
<path d="M6405 6398 c-11 -7 -1409 -1401 -3108 -3099 -2453 -2453 -3087 -3092
-3087 -3112 0 -14 7 -28 16 -31 9 -3 2798 -6 6198 -6 4795 0 6185 3 6194 12 7
7 12 20 12 29 0 9 -1388 1405 -3084 3101 -1696 1695 -3092 3091 -3102 3100
-15 13 -23 14 -39 6z"/>
</g>
</svg>
