<svg viewBox="0 0 1440 1024" xmlns="http://www.w3.org/2000/svg" xmlns:xlink="http://www.w3.org/1999/xlink" style="background:#6AD4EB">
  <title>
    map
  </title>
  <defs>
    <path id="path-1" d="M36.03 62.647V.35H.377v62.297h35.65z"/>
    <path id="path-3" d="M0 71h373.643V.402H0z"/>
      
    <path id="path-5" d="M405 714h120v120H405z"/>
    <path id="path-6" d="M235 597h120v120H235z"/>
    <path id="path-7" d="M175 389h120v120H175z"/>
    <path id="path-8" d="M373 225h120v120H373z"/>
    <path id="path-9" d="M592 60h120v120H592z"/>
    <path id="path-10" d="M688 212h120v120H688z"/>
    <path id="path-11" d="M963 267h120v120H963z"/>
    <path id="path-12" d="M882 85h120v120H882z"/>
    <path id="path-13" d="M1228 300h120v120h-120z"/>
    <path id="path-14" d="M1054 565h120v120h-120z"/>
    <path id="path-15" d="M822 802h120v120H822z"/>
  </defs>
  <g id="Page-1" fill="none" fill-rule="evenodd">
      
    <g id="map">
        
      <path id="island" fill="#000" d="M57.45 218.223c2.09 77.39 24.336 30.954 31.188 82.063 6.85 51.11-64.362 225.678-54.743 302.672 5.443 43.562 102.116 182.898 99.49 225.44-2.506 40.555 214.627 8.776 187.12 37.34-35.85 37.23-212.802 27.866-215.875 55.657-5.244 47.422-44.692 23.852 46.734 49.32 91.427 25.47 48.42 30.68 196.336 25.923 100.597-3.236 91.15-33.812 149.125-40.407 27.27-3.1 236.504 36.51 285.024 40.408 75.943 6.098 127.754-17.13 182.795-17.58 45.988-.373 99.862 23.088 118.524 17.58 55.268-16.313-110.377-57.04-84.603-130.9 25.775-73.858 99.198-29.593 176.985-68.17 77.787-38.58 112.162-48.593 142.937-90.493 30.774-41.9-18.93 32.613 0-104.117 7.28-52.6 76.62-80.562 85.944-118.586 14.914-60.815-27.61-112.494-30.132-145.234-4.1-53.21-33.472-78.044-84.18-104.383-50.708-26.34-70.428 16.89-135.07-16.532-64.642-33.42-62.845-73.024-96.953-103.43-34.11-30.404 62.497-47.095-59.533-78.937-122.03-31.84-166.145 16.75-282.88 14.188-59.598-1.31-100.603-14.528-139.424-14.188-37.217.327-72.994 14.188-95.454 14.188-45.888 0 63.658-28.14-70.86-24.063-86.536 2.624-79.064 58.558-94.877 73.452-16.835 15.86-51.474 45.416-118.7 29.877-49.32-11.4-.77 141.368-16.228 170.976-16.074 30.79-123.76-121.515-122.695-82.063z"/>
        
    <!-- Trails -->
    <g class="trails">
      <path d="M332.21 861.534c101.394 5.923 152.16-29.537 152.294-106.38.204-115.267-126.492-195.915-215.11-242.978-88.616-47.062-95.494-206.307 13.337-270.164 49.48-29.03 107.748 77.733 189.064 63.96 81.315-13.77 204.322-140.94 157.6-157.85-91.34-33.063-68.377 208.535 5.9 157.85 18.57-12.67 64.605-52.317 95.074-22.335 30.468 29.983-32.014 208.1 16.472 228.54 90.294 38.062 251.673-116.93 292.422-188.415 40.75-71.483-174.936-184.554-87.867-170.42 87.07 14.13 316.063 142.8 359.234 214.467 43.17 71.666 30.754 106.773-127 171.054-141.35 57.596-89.278 162.595-46.428 244.177"/>
        
      <path d="M984.685 901.614c-141.195-5.12-253.1-16.395-264.685-94.387"/>
    </g>
        
    <!-- Stops -->
      <g fill="#000">
            <rect id="stop1" x="405" y="714" width="120" height="120"></rect>
            <rect id="stop2" x="235" y="597" width="120" height="120"></rect>
            <rect id="stop3" x="175" y="389" width="120" height="120"></rect>
            <rect id="stop4" x="373" y="225" width="120" height="120"></rect>
            <rect id="stop5" x="592" y="60" width="120" height="120"></rect>
            <rect id="stop6" x="688" y="212" width="120" height="120"></rect>
            <rect id="stop7" x="882" y="85" width="120" height="120"></rect>
            <rect id="stop8" x="963" y="267" width="120" height="120"></rect>
            <rect id="stop9" x="1228" y="300" width="120" height="120"></rect>
            <rect id="stop10" x="1054" y="565" width="120" height="120"></rect>
            <rect id="stop11" x="822" y="802" width="120" height="120"></rect>
      </g>
        
     
    <!-- Section Icons -->
      <g id="ship">
        <path fill="#FFF" d="M200 847l22.224 28h75.14L318 847z"/>
        <g id="Group-8" fill="#FFF">
          <path d="M260.457 858.105h3.3V789h-3.3z"/>
          <path d="M279.438 840.006h-34.75S239 836.656 239 816.97c0-19.683 5.687-23.034 5.687-23.034h34.75c-1.482 2.682-5.686 11.004-5.686 23.035 0 3.327.323 13.333 5.688 23.036" />
          <path d="M224.078 855.07h3.3V809h-3.3z"/>
          <path d="M235.632 842.73h-17.73S215 840.516 215 827.51s2.9-15.22 2.9-15.22h17.732c-.757 1.773-2.902 7.27-2.902 15.22 0 2.198.164 8.81 2.902 15.22" />
          <path d="M292.078 855.07h3.3V809h-3.3z"/>
          <path d="M303.632 842.73h-17.73S283 840.516 283 827.51s2.9-15.22 2.9-15.22h17.732c-.757 1.773-2.902 7.27-2.902 15.22 0 2.198.164 8.81 2.902 15.22" />
        </g>
        <g>
          <path d="M266.5 814.444c.036-5.574-4.453-10.063-10.028-10.027-5.574.037-10.123 4.586-10.16 10.16-.024 3.602 1.843 6.747 4.668 8.515l-.027 4.124 3.865-.024.018-2.69c.49.07.992.105 1.503.103.66-.005 1.306-.075 1.933-.2l-.018 2.764 3.865-.027.03-4.41c2.608-1.845 4.327-4.872 4.35-8.29z" stroke="#000" stroke-width="2" fill="#000"/>
          <g stroke="#FFF">
            <path d="M249.586 817.153l2.698-2.698" />
            <path d="M252.414 817.153l-2.698-2.698" />
            <path d="M260.536 817.203l2.748-2.748" />
            <path d="M263.414 817.153l-2.698-2.698" />
          </g>
        </g>
      </g>
        
      <g id="chest">
        <path fill="#FFF" d="M218 165h82v50h-82z"/>
        <path d="M241 146h36c12.703 0 23 10.297 23 23v46h-82v-46c0-12.703 10.297-23 23-23z" id="Rectangle-11" fill="#FFF"/>
        <path fill="#000" d="M218 165h82v16h-82z"/>
        <path stroke="#FFF" d="M299 165l-10 6.84 10 9.16M218 165l10 6.84-10 9.16"/>
        <path d="M290 171.84l-61 .32" stroke="#FFF"/>
        <path d="M258.6 188.907c-.936-.366-1.6-1.29-1.6-2.37 0-1.4 1.12-2.537 2.5-2.537s2.5 1.137 2.5 2.538c0 1.08-.664 2.003-1.6 2.37L262 195h-5l1.6-6.093z" fill="#000"/>
        <path d="M235 179v40M284 179v40" stroke="#000"/>
        <path d="M272 145c5.18 0 8.848 6.667 11 20M246 145c-5.18 0-8.848 6.667-11 20" stroke="#000"/>
      </g>
        
      <g id="flag">
        <path stroke="#FFF" stroke-width="4" d="M1115.552 122.705l30.34 106.572"/>
        <path fill="#FFF" d="M1116.205 129.188l97.546-26.137-21.747 17.07 28.11 6.673-14.225 11.956 18.088 2.463-25.456 17.55 30.035-.463-97.546 26.137z"/>
          <g stroke-width="2" stroke="#000">
            <path d="M1180.747 125.647l.283 3.325-37.627 37.628-3.636.235"/>
            <path d="M1181.093 128.878l3.277-.34M1143.352 170.268l.232-3.637"/>
            <path id="Path-8" d="M1135.256 137.836l1.417 3.02 51.4 13.774 3.266-1.614"/>
            <path d="M1136.572 140.807l-3.008 1.345M1189.95 157.782l-2.018-3.034"/>
          </g>
          <path stroke="#000" stroke-width="2" fill="#000" d="M1174.506 141.008c-1.958-7.31-9.47-11.646-16.78-9.688-7.308 1.96-11.645 9.47-9.687 16.78 1.264 4.72 4.848 8.198 9.196 9.544l1.448 5.408 5.07-1.357-.946-3.526c.67-.077 1.34-.204 2.01-.382.868-.233 1.69-.546 2.468-.924l.972 3.623 5.068-1.358-1.55-5.785c2.763-3.307 3.93-7.858 2.73-12.337z" />
          <g stroke="#FFF">
            <path d="M1152.962 150.424l2.975-5.154" />
            <path d="M1157.223 149.282l-5.153-2.975" />
            <path d="M1168.433 146.278l2.975-5.153" />
            <path d="M1172.694 145.136l-5.153-2.975" />
          </g>
        </g>
      </g>
      
       <g id="kraken" transform="translate(1074 763)">
        <path fill="#FFF" d="M107.31 111.992c3.608.015 34.69.598 34.69-11.985C142 87.423 126.336 75 107.558 75S74 87.423 74 100.007c0 12.583 29.702 11.97 33.31 11.985z" />
        <ellipse fill="#000" cx="94.847" cy="102.429" rx="1.985" ry="3"/>
        <ellipse fill="#000" cx="120.657" cy="102.429" rx="1.985" ry="3"/>
        <path fill="#FFF" d="M176.632 128c-6.32-5.807-7.462-14.93-3.43-27.367 6.05-18.658 24.86-17.87 23.374-26.133-1.486-8.262-28.84-9.286-27.53-23.4 1.308-14.114 25.895-30.23 30.333-30.1 4.436.132-22.708 14.544-19.923 30.1 2.784 15.556 28.39 11.473 29.498 23.4 1.107 11.928-18.476 17.14-19.955 28.2-.986 7.375 3.28 15.808 12.8 25.3h-25.168zM39.368 128c6.32-5.807 7.462-14.93 3.43-27.367-6.05-18.658-24.86-17.87-23.374-26.133 1.486-8.262 28.84-9.286 27.53-23.4C45.647 36.986 21.06 20.87 16.622 21c-4.436.132 22.708 14.544 19.923 30.1C33.76 66.656 8.153 62.573 7.045 74.5 5.938 86.428 25.52 91.64 27 102.7c.986 7.375-3.28 15.808-12.8 25.3h25.168zM68.58 66c-3.792-3.582-4.478-9.21-2.058-16.88C70.152 37.61 81.437 38.096 80.545 33c-.89-5.096-17.303-5.728-16.518-14.434C64.812 9.86 79.565-.08 82.227 0c2.663.08-13.624 8.97-11.953 18.566 1.67 9.595 17.035 7.077 17.7 14.434.663 7.357-11.086 10.573-11.974 17.395-.592 4.55 1.97 9.75 7.68 15.605h-15.1zM146.42 66c3.792-3.582 4.478-9.21 2.058-16.88-3.63-11.51-14.915-11.023-14.023-16.12.89-5.096 17.303-5.728 16.518-14.434C150.188 9.86 135.435-.08 132.773 0c-2.663.08 13.624 8.97 11.953 18.566-1.67 9.595-17.035 7.077-17.7 14.434-.663 7.357 11.086 10.573 11.974 17.395.592 4.55-1.97 9.75-7.68 15.605h15.1z" />
        <path stroke="#000" stroke-width="3" fill="#6AD4EB" d="M55 129v-.05h-1.234c-5.485-.777-5.968-5.95-12.338-5.95-6.37 0-6.853 5.173-12.34 5.95h-2.872c-5.486-.777-5.968-5.95-12.34-5.95-6.37 0-6.852 5.173-12.337 5.95H0M91 67v-.033h-.74C86.968 66.45 86.68 63 82.857 63c-3.823 0-4.112 3.45-7.403 3.967H73.73C70.437 66.45 70.15 63 66.325 63c-3.822 0-4.11 3.45-7.403 3.967H58M156 67v-.033h-.74c-3.292-.518-3.58-3.967-7.403-3.967-3.823 0-4.112 3.45-7.403 3.967h-1.725c-3.292-.518-3.58-3.967-7.404-3.967-3.822 0-4.11 3.45-7.403 3.967H123M211 129v-.05h-1.234c-5.485-.777-5.968-5.95-12.338-5.95-6.37 0-6.853 5.173-12.34 5.95h-2.872c-5.486-.777-5.968-5.95-12.34-5.95-6.37 0-6.852 5.173-12.337 5.95H156" />
      </g>
      
        <path id="x" fill="#6AD4EB" d="M749.358 637L719.5 666.858 689.642 637 669 657.642l29.858 29.858L669 717.358 689.642 738l29.858-29.857L749.358 738 770 717.358 740.143 687.5 770 657.642z"/>
      
      <!--Section Headings -->
      
      <text id="Blog" font-family="Futura-Bold, Futura" font-size="30" font-weight="bold" fill="#FFF">
        <tspan x="1145" y="926">Blog</tspan>
      </text>
      <text id="Work" font-family="Futura-Bold, Futura" font-size="30" font-weight="bold" fill="#FFF">
        <tspan x="1136" y="269">Work</tspan>
      </text>
      <text id="About" font-family="Futura-Bold, Futura" font-size="30" font-weight="bold" fill="#FFF">
        <tspan x="213" y="926">About</tspan>
      </text>
      <text id="CV" font-family="Futura-Bold, Futura" font-size="30" font-weight="bold" fill="#FFF">
        <tspan x="239" y="269">CV</tspan>
      </text>
      <text id="Talk-to-Me" font-family="Futura-Bold, Futura" font-size="30" font-weight="bold" fill="#FFF">
        <tspan x="637" y="775">Talk to Me</tspan>
      </text>
        
    
      <!-- Words -->
      <path id="Rectangle-10" fill="#000" d="M431 414h579v196H431z"/>
            <g id="wordmark" fill="#6AD4EB" transform="translate(533.000000, 430.000000)">
                <polygon points="51.1,70.1 51.1,58.3 27.9,35.1 51.1,11.8 51.1,0 16,35.1 	"/>
                <path d="M111.3,62.7h20.9v7.7h-37L118,42.7h-18v-7.6h34L111.3,62.7z"/>
                <path d="M139.3,23.8c0-2.9,2.4-5.2,5.3-5.2c1.4,0,2.8,0.5,3.8,1.6c1,1,1.6,2.3,1.6,3.7c0,1.4-0.5,2.8-1.6,3.8c-1,1-2.3,1.5-3.7,1.5
                    C141.7,29.1,139.3,26.7,139.3,23.8C139.3,23.8,139.3,23.7,139.3,23.8L139.3,23.8z M148.7,35.1v35.2h-8.1v-27L148.7,35.1z"/>
                <polygon points="234.2,70.2 242.3,63.8 242.3,8.1 278.1,8.1 284.4,0 234.2,0 	"/>
                <path d="M251.8,51.5c-0.1-4.9,1.9-9.6,5.5-13c7.5-7.2,19.2-7.2,26.7,0c3.6,3.5,5.5,8.3,5.4,13.2c0.1,5-1.9,9.8-5.5,13.3
                    c-3.6,3.5-8.5,5.5-13.6,5.4c-5,0.1-9.8-1.8-13.3-5.4C253.6,61.3,251.7,56.5,251.8,51.5z M260.1,51.6c-0.2,3,0.8,6,2.8,8.3
                    c4.2,4.1,11,4.1,15.3,0c2-2.3,3-5.2,2.9-8.2c0.1-3-0.9-5.9-2.9-8.2c-4.2-4.1-11-4.1-15.2,0C261,45.8,260,48.7,260.1,51.6
                    L260.1,51.6z"/>
                <path d="M323.2,16.5l8.2-8.2v61.1h-8.2v-3.7c-2.8,3-6.8,4.7-10.9,4.7c-4.6,0.1-9-1.8-12-5.3c-3.2-3.7-4.9-8.5-4.7-13.4
                    c-0.1-4.8,1.6-9.5,4.7-13.1c5.5-6.4,15.1-7.1,21.4-1.7c0.5,0.4,1,0.9,1.4,1.4L323.2,16.5z M303.8,51.6c-0.1,3,0.8,5.9,2.7,8.2
                    c1.7,2.1,4.3,3.3,7,3.2c2.8,0.1,5.4-1,7.3-3.1c1.9-2.3,2.9-5.2,2.8-8.2c0.1-3-0.8-5.9-2.7-8.2c-1.8-2.1-4.5-3.2-7.3-3.1
                    c-2.7,0-5.2,1.1-7,3.1C304.8,45.8,303.8,48.7,303.8,51.6z"/>
                <path d="M366.8,16.5l8.2-8.2v61.1h-8.2v-3.7c-2.8,3-6.8,4.7-10.9,4.7c-4.6,0.1-9-1.8-12-5.3c-3.2-3.7-4.9-8.5-4.7-13.4
                    c-0.1-4.8,1.6-9.5,4.7-13.1c5.5-6.4,15.1-7.1,21.4-1.7c0.5,0.4,1,0.9,1.4,1.4L366.8,16.5z M347.5,51.6c-0.1,3,0.8,5.9,2.7,8.2
                    c1.7,2.1,4.3,3.3,7,3.2c2.8,0.1,5.4-1,7.3-3.1c1.9-2.3,2.9-5.2,2.8-8.2c0.1-3-0.8-5.9-2.7-8.2c-1.8-2.1-4.5-3.2-7.3-3.1
                    c-2.7,0-5.2,1.1-6.9,3.1C348.4,45.8,347.4,48.7,347.5,51.6z"/>
                <rect width="8.1" height="70.1"/>
                <path d="M212.6,8.1V0h28.9v8.1H212.6z"/>
                <path d="M85.2,56.4l-0.3-0.1l-0.1,0.1H85.2z"/>
                <path d="M82,60.1c-0.5,0.5-1,1-1.6,1.5c-1.5,1-3.2,1.5-5,1.5c-2.4,0.1-4.7-0.8-6.4-2.5c-1.7-1.9-2.7-4.3-2.8-6.9h25.2v-1.9
                    c0-5.8-1.5-10.4-4.5-13.6c-3.2-3.4-7.7-5.2-12.3-5c-4.7-0.2-9.2,1.7-12.4,5.1c-3.2,3.8-4.8,8.6-4.6,13.5c-0.2,5,1.5,9.8,4.8,13.5
                    c3.3,3.4,7.9,5.3,12.6,5.1c1.7,0,3.4-0.2,5.1-0.5c1.5-0.4,3-1,4.4-1.8c1.4-0.9,2.7-2,3.8-3.2c1.3-1.4,2.4-3,3.3-4.6L82,60.1z
                     M67.9,44.3c0.5-0.8,1.1-1.5,1.9-2.1c0.7-0.6,1.5-1,2.4-1.3c0.9-0.3,1.8-0.5,2.8-0.5c4.3,0,7.1,2.2,8.2,6.5H66.8
                    C67,46,67.4,45.1,67.9,44.3z"/>
                <path d="M183.3,56.4l-0.3-0.1l-0.1,0.1H183.3z"/>
                <path d="M180.2,60.1c-0.5,0.5-1,1-1.6,1.5c-1.5,1-3.2,1.5-5,1.5c-2.4,0.1-4.7-0.8-6.4-2.5c-1.8-1.9-2.8-4.3-2.9-6.9h25.3v-1.9
                    c0-5.8-1.5-10.4-4.5-13.6c-6.9-6.7-17.9-6.6-24.7,0.1c-3.2,3.8-4.8,8.6-4.6,13.5c-0.2,5,1.5,9.8,4.8,13.5c3.3,3.4,7.9,5.3,12.6,5.1
                    c1.7,0,3.4-0.2,5.1-0.6c1.5-0.4,3-1,4.4-1.8c1.4-0.9,2.7-2,3.8-3.2c1.3-1.4,2.4-3,3.3-4.6L180.2,60.1z M166,44.3
                    c0.5-0.8,1.1-1.5,1.8-2c0.7-0.6,1.5-1,2.4-1.3c0.9-0.3,1.8-0.5,2.8-0.5c4.3,0,7.1,2.2,8.2,6.5h-16.3C165.1,46,165.5,45.1,166,44.3z
                    "/>
            </g>
      
      
      <text id="But-you-can-call-me" font-family="Futura-Medium, Futura" font-size="20" font-weight="400" fill="#FFF">
        <tspan x="462.253" y="545">But you can call me Kez. Maker of stories, monsters, and </tspan> <tspan x="436.359" y="571">designs with personality hailing from Northern Ireland and just </tspan> <tspan x="582.189" y="597">about everywhere in between.</tspan>
      </text>
        
        

  </g>
</svg>
